<?xml version="1.0" encoding="utf-8"?>
<!-- Generator: Adobe Illustrator 25.2.1, SVG Export Plug-In . SVG Version: 6.00 Build 0)  -->
<svg version="1.1" id="Layer_1" xmlns="http://www.w3.org/2000/svg" xmlns:xlink="http://www.w3.org/1999/xlink" x="0px" y="0px"
	 viewBox="0 0 1471 416" style="enable-background:new 0 0 1471 416;" xml:space="preserve">
<style type="text/css">
	.st0{display:none;fill:#D07737;}
	.st1{fill:#D07737;}
	.st2{fill:none;}
	.st3{fill:#161616;}
</style>
<g>
	<g>
		<g>
			<path class="st0" d="M1022.2-125.67c-1.62-0.06-3.25-0.09-4.87,0.01c-5.94,0.36-8.78,3.34-8.86,9.29c-0.05,3.5-0.07,7,0.01,10.5
				c0.04,1.9-0.8,3.12-2.45,3.79c-4.91,2-10.07,2.8-15.34,2.87c-2.59,0.03-3.6-1.01-3.86-3.57c-0.09-0.87-0.03-1.75-0.03-2.62
				c0-5.75-0.03-11.5,0.02-17.25c0.02-1.78-0.57-3.02-2.46-3c-2.86,0.03-5.74,0.08-8.57,0.48c-2.82,0.39-4.69,2.34-5.51,4.98
				c-0.51,1.63-0.62,3.44-0.63,5.17c-0.04,16.12-0.03,32.24-0.03,48.36c0,0.5-0.03,1,0.01,1.5c0.2,2.83,0.83,3.55,3.6,3.63
				c3.37,0.09,6.75,0.11,10.12-0.01c2.98-0.11,3.42-0.62,3.44-3.6c0.04-4.62-0.05-9.25,0.03-13.87c0.01-0.65,0.02-1.28-0.02-1.9
				v-4.88c5.72-0.64,11.2-1.18,16.63-2c4.11-0.62,4.98-0.19,5.01,3.9c0.04,6.12-0.01,12.25,0.02,18.37c0.02,3.28,0.64,3.92,3.93,4
				c3.12,0.07,6.25,0.08,9.37,0c3.38-0.08,3.88-0.62,3.89-3.94c0.02-9.37,0.01-18.75,0.01-28.12c0-9.5,0.03-19-0.02-28.49
				C1025.63-125.07,1025.1-125.57,1022.2-125.67z"/>
		</g>
	</g>
</g>
<g>
	<g>
		<g>
			<g>
				<path class="st1" d="M504.47,154.12c-4.35-0.17-8.72,0.14-13.07-0.08c-5.14-0.26-8.64,1.65-11.09,6.31
					c-4.37,8.3-9.1,16.41-13.67,24.6c-4.34,7.77-8.67,15.55-13.57,24.35c-1.58-2.66-2.41-3.99-3.18-5.36
					c-7.8-13.99-15.85-27.85-23.26-42.04c-3.12-5.97-7.3-8.44-13.73-7.81c-2.05,0.2-4.14,0.16-6.16,0.51
					c-6.92,1.19-11.9,6.71-11.92,13.77c-0.1,32.34-0.07,64.67-0.02,97.01c0.01,4.97,1.04,6.03,6.04,6.22
					c5.27,0.2,10.55,0.11,15.82,0.04c7.06-0.09,8.03-1.02,8.05-7.9c0.04-16.28,0-32.57,0.04-48.85c0-1.59,0.37-3.18,0.74-6.14
					c1.38,2.29,1.98,3.2,2.5,4.15c4.4,8.03,9.06,15.93,13.07,24.15c2.7,5.53,7,6.37,12.38,6.47c5.43,0.1,9.06-1.72,11.55-6.71
					c3.88-7.78,8.19-15.34,12.37-22.96c0.8-1.45,1.87-2.76,3.77-5.52c0.17,3.89,0.35,6.06,0.36,8.24
					c0.02,15.82-0.03,31.65,0.03,47.47c0.03,6.59,0.98,7.49,7.6,7.59c5.27,0.08,10.55,0.16,15.82-0.03
					c5.19-0.18,6.48-1.47,6.48-6.65c0.05-34.63,0.05-69.26,0-103.89C511.41,155.48,510.2,154.34,504.47,154.12z"/>
				<path class="st1" d="M1057.18,203.75c-8.69-0.42-17.44-0.4-26.12,0.06c-7.48,0.4-12.5,5.82-13.42,13.26
					c-0.84,6.77,0.39,8.25,7.12,8.3c7.08,0.05,12.24,0.01,19.41,0.01c0,5.47-0.91,9.58-3.57,13.11c-2.41,3.2-6.97,6.18-10.37,7.48
					c-4.71,1.81-10.31,2.16-15.45,1.83c-13.18-0.86-18.94-6.9-19.38-20.06c-0.35-10.54-0.22-21.1,0.07-31.64
					c0.26-9.24,4.94-15.4,12.66-17.61c9.5-2.72,19.99,0.34,24.38,7.81c2.33,3.96,5.26,5.29,9.52,5.2
					c6.19-0.13,12.39,0.03,18.58-0.05c7.42-0.1,8.99-2.18,6.84-9.37c-3.38-11.28-11.2-18.8-21.61-23.44
					c-16.51-7.36-33.81-8.03-51.03-3.38c-18.04,4.88-29.08,16.82-31.39,35.72c-1.93,15.76-2.15,31.67,0.64,47.28
					c2.08,11.64,8.46,21.24,19.26,27.01c20.67,11.05,41.89,10.8,62.64,0.93c14.55-6.92,22.18-19.34,22.63-35.73
					c0.13-4.81,0.22-9.64,0.08-14.45C1068.4,207.66,1065.41,204.15,1057.18,203.75z"/>
				<path class="st0" d="M1014.01,227.9c-1.62-0.06-3.25-0.09-4.87,0.01c-5.94,0.36-8.78,3.34-8.86,9.29c-0.05,3.5-0.07,7,0.01,10.5
					c0.04,1.9-0.8,3.12-2.45,3.79c-4.91,2-10.07,2.8-15.34,2.87c-2.59,0.03-3.6-1.01-3.86-3.57c-0.09-0.87-0.03-1.75-0.03-2.62
					c0-5.75-0.03-11.5,0.02-17.25c0.02-1.78-0.57-3.02-2.46-3c-2.86,0.03-5.74,0.08-8.57,0.48c-2.82,0.39-4.69,2.34-5.51,4.98
					c-0.51,1.63-0.62,3.44-0.63,5.17c-0.04,16.12-0.03,32.24-0.03,48.36c0,0.5-0.03,1,0.01,1.5c0.2,2.83,0.83,3.55,3.6,3.63
					c3.37,0.09,6.75,0.11,10.12-0.01c2.98-0.11,3.42-0.62,3.44-3.6c0.04-4.62-0.05-9.25,0.03-13.87c0.01-0.65,0.02-1.28-0.02-1.9
					v-4.88c5.72-0.64,11.2-1.18,16.63-2c4.11-0.62,4.98-0.19,5.01,3.9c0.04,6.12-0.01,12.25,0.02,18.37c0.02,3.28,0.64,3.92,3.93,4
					c3.12,0.07,6.25,0.08,9.37,0c3.38-0.08,3.88-0.62,3.89-3.94c0.02-9.37,0.01-18.75,0.01-28.12c0-9.5,0.03-19-0.02-28.49
					C1017.44,228.49,1016.91,228,1014.01,227.9z"/>
				<path class="st1" d="M860.98,205.82c-8.97-2.67-18.18-4.51-27.18-7.08c-4.55-1.3-9.29-2.76-13.19-5.31
					c-5.52-3.61-4.83-10.43,0.77-13.99c6.83-4.34,20.31-2,24.77,4.72c2.19,3.3,4.97,4.56,8.55,4.7c3.2,0.13,6.42,0.03,9.62,0.03
					c2.98,0,5.96,0.09,8.94-0.01c5.6-0.19,7.1-1.92,5.79-7.27c-2.11-8.6-7.01-15.52-14.45-20.16
					c-18.68-11.65-38.53-11.88-58.58-4.35c-8.52,3.2-15.29,9.19-19,17.87c-7.46,17.46,0.28,35.66,18.86,43.03
					c7.82,3.1,16.26,4.6,24.38,6.96c5.23,1.52,10.61,2.82,15.55,5.05c7.09,3.21,7.39,11.17,0.44,14.75c-3.7,1.9-8.3,2.62-12.54,2.78
					c-7.47,0.29-14.68-0.85-19.34-7.94c-2.07-3.15-5.26-4.22-8.92-4.21c-5.73,0.02-11.46-0.12-17.19,0.04
					c-6.48,0.17-7.18,1.19-6.3,7.39c1.61,11.32,8.64,18.97,18.32,23.2c22.04,9.63,44.55,10.27,66.13-1.42
					c13.05-7.07,19.18-18.69,16.95-33.84C881.43,217.6,873.4,209.52,860.98,205.82z"/>
				<path class="st1" d="M169.82,190.62c1.99-7.82,6.9-12.18,14.92-12.94c13.28-1.27,20.13,3.22,23.17,13.3
					c1.2,3.96,3.46,5.45,7.54,5.29c6.18-0.24,12.38-0.01,18.57-0.08c6.78-0.08,8.1-1.68,6.97-8.23
					c-2.6-15.03-11.25-25.13-25.2-30.92c-15.4-6.39-31.11-6.6-47.11-2.58c-16.73,4.21-29.33,17.78-31.77,34.81
					c-2.26,15.75-2.13,31.58,0.1,47.27c1.71,12.06,7.44,22.35,18.42,28.35c21.44,11.71,43.5,11.54,65.13,0.75
					c11.96-5.96,19.02-16.28,20.59-29.82c0.62-5.37-0.59-6.8-5.79-6.93c-6.88-0.17-13.76,0.02-20.64-0.05
					c-3.38-0.03-5.69,1.13-6.66,4.61c-3.43,12.38-12.42,14.94-23.39,13.95c-8.23-0.74-13.55-5.41-14.87-13.68
					c-1.08-6.75-1.2-13.65-1.75-20.49c0.22-0.01,0.45-0.03,0.67-0.04c0-5.73-0.08-11.47,0.05-17.2
					C168.83,194.2,169.37,192.39,169.82,190.62z"/>
				<path class="st1" d="M1318.02,153.35c-9.16,0.29-18.34,0.06-27.5,0.06c-15.13,0-30.26,0.02-45.39-0.01
					c-6.83-0.01-13.02,1.77-16.01,8.35c-1.53,3.37-1.64,7.55-1.76,11.38c-0.19,6.36,1.16,7.61,7.52,7.7
					c6.65,0.1,13.3,0.11,19.94-0.01c3.47-0.06,5.79,1.21,6.43,4.71c0.28,1.56,0.12,3.2,0.12,4.8c0,24.07-0.01,48.14,0.01,72.22
					c0.01,7.41,0.73,8.12,8.23,8.22c5.27,0.07,10.54,0.07,15.82,0c7.55-0.1,8.06-0.61,8.07-8.32c0.03-22.24-0.07-44.48,0.06-66.71
					c0.01-1.06,0.01-2.11-0.03-3.14v-11.74c8.62,0.01,17.24,0.05,25.85-0.02c6.87-0.06,8.09-1.29,8.2-7.93
					c0.05-3.21-0.16-6.43,0.04-9.63C1328.14,155.02,1326.45,153.09,1318.02,153.35z"/>
				<path class="st1" d="M937.95,159.52c-0.31-4.62-1.74-5.85-6.47-5.99c-2.98-0.09-5.96-0.09-8.94,0
					c-11.13,0.33-17.01,5.88-17.07,17.07c-0.18,31.17-0.1,62.35-0.03,93.53c0.01,5.9,1.32,7.08,7.41,7.21
					c5.5,0.12,11,0.05,16.5,0.02c7.96-0.04,8.62-0.68,8.64-8.68c0.04-16.73,0.01-33.47,0.01-50.2c0-14.21,0-28.42,0-42.64
					C938.01,166.4,938.18,162.95,937.95,159.52z"/>
			</g>
		</g>
		<g>
			<path class="st2" d="M572.95,234.78c1.1-1.2,2.16-2.46,3.19-3.78C574.14,231.5,573.29,232.53,572.95,234.78z"/>
			<path class="st2" d="M573.64,251.96c-0.16-0.01-0.33,0-0.46,0c0.47-0.6,0.94-1.2,1.42-1.8c-0.08-0.08-0.16-0.15-0.24-0.23
				c-0.54,0.19-1.09,0.38-1.63,0.57c0,0.88-0.01,1.75-0.01,2.63c0.58-0.35,1.16-0.68,1.73-1.04
				C573.96,252,573.8,251.97,573.64,251.96z"/>
			<path class="st1" d="M637.79,186.68c-1.13-10.76-5.76-19.59-15.23-25.53c-9.28-5.83-19.63-7.45-30.26-7.68
				c-11.23-0.24-22.48-0.08-33.72-0.05c-13.02,0.04-18.48,5.34-18.54,18.15c-0.07,14.91-0.02,29.82-0.02,44.74
				c0,15.83-0.06,31.66,0.03,47.49c0.03,6.26,1,7.19,7.17,7.34c5.5,0.13,11.01,0.06,16.51,0.02c5.28-0.04,7.5-0.58,8.39-3.35
				c-1.86,0.7-3.76,1.23-5.78,1.3c1.47-1.22,2.98-2.48,4.5-3.74c-0.08-0.17-0.17-0.35-0.25-0.52c-5.01,1.74-10.09,3.15-15.73,3.72
				c1.09-0.96,1.93-1.69,2.98-2.62c-3.47,0.37-6.7,0.71-9.94,1.06c-0.03-0.09-0.07-0.19-0.1-0.28c1.66-0.93,3.32-1.85,5.14-2.86
				c-1.92-0.6-3.65-1.13-5.38-1.67c0-0.14,0-0.29,0.01-0.43c9.09-0.76,17.29-3.9,25.16-8.63c0-0.88,0.01-1.75,0.01-2.63
				c-1.77,0.62-3.53,1.25-5.31,1.85c-0.37,0.12-0.78,0.1-1.17,0.14c-0.01,0.01-0.02,0.02-0.03,0.02c-0.03,0-0.04,0-0.06,0.01l0,0
				c0,0,0,0,0,0c-0.08,0.05-0.05,0.03,0,0c-0.09,0.01-0.06,0.01,0,0c0.02-0.01,0.03-0.02,0.04-0.03c0.01,0,0.03,0,0.04,0
				c0.45-0.36,0.9-0.72,1.35-1.09c-0.02-0.06-0.04-0.12-0.05-0.17c-3.24,1.17-6.48,2.34-9.72,3.51c-0.05-0.07-0.11-0.14-0.16-0.21
				c0.53-0.8,1.06-1.59,1.69-2.54c-2.58,0.38-4.98,0.72-7.47,1.09c0.09-0.39,0.14-0.58,0.2-0.83c-1.87-0.27-3.63-0.78-5.09-2.45
				c10.61-2.03,18.98-7.34,25.98-15.02c0.34-2.25,1.19-3.28,3.19-3.78c0.21-0.26,0.42-0.52,0.62-0.79c-2.3,0.95-4.33,1.78-6.35,2.62
				c-0.05-0.09-0.11-0.17-0.16-0.26c0.53-0.64,1.06-1.28,1.6-1.92c-0.1-0.11-0.2-0.22-0.3-0.33c-1.39,0.52-2.75,1.16-4.18,1.52
				c-1.43,0.35-2.94,0.42-4.52,0.35c1.56-1.23,3.13-2.47,4.69-3.7c-0.1-0.17-0.2-0.34-0.3-0.51c-3.72,2.63-7.65,4.73-12.4,5.23
				c2.21-1.55,4.82-2.26,6.62-4.6c-1.2,0.1-2.16,0.19-3.12,0.27c-0.1-0.14-0.2-0.29-0.31-0.43c0.39-0.25,0.77-0.52,1.18-0.73
				c0.44-0.22,0.92-0.39,1.38-0.57c-0.03-0.11-0.05-0.22-0.08-0.33c-1.5,0-3,0-4.5,0c-0.04-0.13-0.09-0.27-0.13-0.4
				c1.05-0.5,2.08-1.04,3.14-1.5c5.53-2.41,11.39-4.13,16.29-7.84c1.14-0.87,2.2-1.84,3.3-2.77c-0.05-0.11-0.11-0.22-0.16-0.33
				c-0.61,0.1-1.22,0.2-1.92,0.31c0.21-0.3,0.35-0.51,0.41-0.6c-3.23,0.28-6.49,0.57-9.76,0.86c0,0-0.03,0.04-0.03,0.04l0.02-0.04
				c0.29-0.11,0.59-0.22,1.22-0.45c-2.82,0-5.31,0-7.79,0c-0.03-0.08-0.06-0.16-0.09-0.24c0.39-0.29,0.78-0.58,1.32-0.98
				c-1.66-0.39-3.11-0.91-4.01-2.37c8.11-0.84,15.21-3.5,20.56-10.21c-3.03,0.85-5.83,1.63-8.64,2.41c0.01-0.16,0.03-0.32,0.04-0.48
				c-0.27-0.18-0.52-0.47-0.81-0.51c-1.06-0.18-2.13-0.28-3.45-0.44c0.39-0.32,0.58-0.47,0.85-0.69c-0.41-0.29-0.8-0.57-1.33-0.95
				c6.86-1.42,12.27-4.74,15.85-11.2c-0.76,0.24-1.21,0.46-1.67,0.51c-0.45,0.05-0.91-0.1-1.37-0.09c-0.35,0-0.72,0.06-1.05,0.18
				c-0.54,0.2-1.06,0.47-1.6,0.7c-0.22,0.09-0.46,0.15-0.82,0.26c0.33-0.48,0.59-0.86,0.93-1.36c-0.7,0-1.26,0-1.82,0
				c0.06-0.11,0.11-0.21,0.17-0.32c-1.07-1.03-2.67-1.26-3.87-2.26c7.95-2.95,11.09-9.95,14.33-16.9
				c4.59,6.82,10.03,12.73,17.17,17.15c-0.7,0.1-1.35,0.22-2,0.27c-0.66,0.05-1.33,0.05-2,0.03c-0.7-0.02-1.4-0.08-2.35-0.14
				c0.39,0.76,0.69,1.35,0.98,1.92c-1.47-0.21-2.99-0.43-4.6-0.67c1.73,4.69,7.59,10.54,15.03,12.54c-0.61,0.35-1.07,0.61-1.63,0.93
				c0.51,0.37,0.72,0.52,1.17,0.84c-1.51,0.34-2.79,0.62-4.13,0.92c0.09,0.16,0.22,0.43,0.52,0.99c-3.16-0.67-6.09-1.28-9.02-1.9
				c0.45,3.2,12.34,9.75,19.88,11.15c-1,0.49-2.01,0.98-3.11,1.52c0.37,0.26,0.73,0.5,1.41,0.98c-2.53,0-4.74,0-6.96,0
				c-0.07,0.08-0.13,0.16-0.2,0.23c-2.8,0.14-5.42-0.65-8.01-1.55c-0.43-0.15-0.86-0.27-1.29-0.41c-0.09,0.07-0.18,0.14-0.27,0.2
				c0.15,0.21,0.29,0.42,0.44,0.63l0.04,0.03l-0.04-0.02c-0.31,0-0.62,0-0.93,0c-0.05,0.11-0.1,0.23-0.15,0.34
				c5.92,5.45,12.62,9.5,20.27,12.19c7.79-2.47,14.33-7.28,18.94-14.79C638.21,204.52,638.73,195.66,637.79,186.68z"/>
		</g>
	</g>
	<path class="st1" d="M1260,93.38c63.3,0,114.62,51.32,114.62,114.62v0c0,63.3-51.32,114.62-114.62,114.62H211
		c-63.3,0-114.62-51.32-114.62-114.62v0c0-63.3,51.32-114.62,114.62-114.62H1260 M1260,81.24H211C141.1,81.24,84.24,138.1,84.24,208
		c0,69.9,56.86,126.76,126.76,126.76H1260c69.9,0,126.76-56.86,126.76-126.76C1386.76,138.1,1329.9,81.24,1260,81.24L1260,81.24z"/>
	<g>
		<path class="st3" d="M742.93,231.91l-1.46-1.21c-1.34-1.1-2.73-2.24-4.06-3.42c-10.15-9.01-17.22-18.34-21.64-28.55
			c-0.59-1.36-1.28-4.29-1.31-4.41l-0.32-1.37l1.07,0.92c0.08,0.07,1.9,1.64,2.71,2.41c1.18,1.13,2.36,2.27,3.54,3.41
			c3.62,3.49,7.36,7.11,11.17,10.51c1.05,0.94,2.24,1.37,3.43,1.25c1.16-0.12,2.24-0.77,3.03-1.83c1.42-1.91,0.98-4.51-1.09-6.32
			c-0.47-0.41-0.96-0.8-1.46-1.19c-0.4-0.32-0.81-0.64-1.2-0.97c-9.38-7.94-15.62-15.75-19.65-24.59c-0.42-0.91-0.6-2-0.77-3.04
			l-0.34-1.97l1.03,1.03c0.66,0.67,1.21,1.07,1.73,1.47c0.28,0.21,0.55,0.42,0.83,0.65c0.7,0.59,1.41,1.19,2.11,1.79
			c1.95,1.67,3.97,3.4,6.05,4.95c2.15,1.61,4.81,1.34,6.33-0.62c1.49-1.93,1.08-4.46-1.04-6.28c-0.36-0.31-0.76-0.6-1.16-0.88
			c-0.62-0.45-1.27-0.91-1.8-1.5c-4.48-4.95-8.52-9.52-12.35-13.97c-0.48-0.56-0.76-1.26-1.11-2.16c-0.19-0.48-0.41-1.03-0.7-1.67
			l-0.59-1.3l1.24,0.71c0.81,0.46,1.52,0.89,2.15,1.28c1.22,0.74,2.19,1.33,3.21,1.75c2.22,0.9,4.13,0.27,5.37-1.79
			c1.15-1.89,0.87-3.76-0.81-5.4c-0.46-0.45-1.01-0.81-1.59-1.19c-0.3-0.19-0.59-0.39-0.88-0.6c-4.32-3.12-8.64-6.69-9.85-12.78
			c-0.38-1.91-2.01-3.04-4.24-2.94c-2.18,0.1-3.63,1.31-3.99,3.33c-0.78,4.46-3.65,7.44-6.07,9.55c-1.35,1.18-2.83,2.23-4.26,3.25
			l-0.5,0.35c-2.76,1.97-3.51,4.29-2.11,6.53c1.46,2.34,4.09,2.64,7.03,0.82c0.72-0.45,1.44-0.91,2.16-1.37l3.53-2.23l-1.23,2.84
			c-0.44,0.73-0.83,1.44-1.21,2.14c-0.85,1.57-1.74,3.19-2.95,4.49c-4,4.29-8.26,8.35-12.65,12.48c-1.36,1.28-3.33,3.83-1.3,6.53
			c1.49,1.98,4.15,2.17,6.62,0.49c0.83-0.57,1.65-1.19,2.44-1.87c1.8-1.52,3.58-3.05,5.37-4.59l2.87-2.46l-0.05,1.06
			c-0.08,1.72-0.52,3.32-1.39,5.03c-4.38,8.62-11.04,16.48-20.36,24.03c-2.07,1.67-4.07,4.26-1.85,7.07
			c0.81,1.02,1.78,1.58,2.88,1.67c1.43,0.13,3.02-0.59,4.6-2.03c3.24-2.96,6.43-6.09,9.52-9.12c1.39-1.36,2.78-2.72,4.17-4.07
			c0.53-0.52,2.22-2.07,2.22-2.07l1.39-1.28l-0.65,1.77c-0.11,0.29-2.67,7.28-4.31,10.23c-5.31,9.59-12.77,18.07-23.48,26.7
			c-0.99,0.8-2.19,1.86-2.66,3.04c-0.79,1.97-0.26,3.79,1.46,5c1.86,1.31,3.8,1.18,5.78-0.39c8.5-6.76,15.42-13.76,21.15-21.41
			c0.66-0.88,2.82-3.8,2.82-3.8l0.82-1.11l0.01,1.38c0,0,0.03,3.77,0.03,4.96l0,13.19c0,17.58,0,35.16,0.01,52.75
			c0,0.26,0,0.51-0.01,0.77c-0.01,0.96-0.02,1.96,0.15,2.88c0.43,2.23,1.91,3.46,4.17,3.47c0.01,0,0.02,0,0.02,0
			c2.26,0,3.74-1.22,4.18-3.43c0.18-0.92,0.17-1.92,0.16-2.88c0-0.26-0.01-0.51-0.01-0.77l0.01-65.93c0-1.09-0.08-4.54-0.08-4.54
			l-0.03-1.39l0.85,1.1c0,0,0.97,1.25,1.08,1.37c0.55,0.63,1.09,1.29,1.59,1.96c5.58,7.49,12.41,14.43,20.9,21.22
			c2.67,2.14,5.39,2.15,7.1,0.04C746.15,236.71,745.59,234.12,742.93,231.91z"/>
	</g>
	<g>
		<path class="st2" d="M1176.69,261.21c-0.59-1.08-1.07-2.22-1.44-3.4C1175.62,258.99,1176.11,260.13,1176.69,261.21z"/>
		<path class="st2" d="M1178.74,264.24c-0.78-0.94-1.46-1.95-2.05-3.03C1177.28,262.29,1177.97,263.3,1178.74,264.24z"/>
		<path class="st2" d="M1182.78,267.92c-1.01-0.68-1.95-1.46-2.81-2.32C1180.83,266.45,1181.77,267.23,1182.78,267.92z"/>
	</g>
	<g>
		<path class="st2" d="M251.83,269.94c0,0-0.3,0.47-0.68,1.21C251.38,270.76,251.6,270.36,251.83,269.94z"/>
	</g>
	<g>
		<path class="st3" d="M1224.32,249.23c-2.11-9.44-3.62-16.54-6.12-27.02c-3.53-15.27-7.17-31.06-10.81-46.58
			c-1.17-5.15-4.18-9.56-8.43-12.78c-0.53-0.4-0.73-0.73-0.81-1.31c-0.9-7-1.76-14.23-8.47-17.75c-6.53-3.79-15.67-1.52-19.47,5.09
			c-3.22,5-2,11.12-2.28,16.73c-0.01,0.35-0.2,0.85-0.41,1.12c-3.24,4.07-4.57,8.37-5.02,13.19c0,0,0,0,0,0l-17.47,0
			c-0.45-4.83-1.77-9.11-5.02-13.19c-0.21-0.27-0.4-0.78-0.41-1.12c-0.27-5.85,0.99-12.33-2.71-17.37
			c-3.95-6.12-12.75-8.1-19.05-4.44c-6.72,3.54-7.57,10.74-8.48,17.75c-0.07,1.04-1.23,1.55-1.92,2.22
			c-3.75,3.15-6.22,7.19-7.32,11.87c-4.86,20.95-10.26,43.86-14.84,64.24c-1.15,4.91-2.23,10.18-2.08,15.24
			c1.56,14.49,13.2,26.35,27.76,27.88l5.87,0.07c15.82-1.74,28.44-14.98,28.17-31.39c0.01-5.61,0-11.77,0-17.41h17.51
			c0.01,5.65-0.02,11.8,0,17.41c-0.27,16.29,12.23,29.55,27.99,31.38l5.79,0.02c14.76-1.6,26.41-13.25,28.02-27.94l0.03-5.66
			L1224.32,249.23z M1195.54,275.5c-29.14,1.84-35.38-38.94-7.26-46.2c2.81-0.64,5.78-0.76,8.63-0.31
			C1224.03,233.69,1222.98,272.28,1195.54,275.5z M1179.07,167.01c8.41-3.98,18.93,1.25,21.02,10.33c1.44,5.6,5.9,25.14,7.29,31.07
			c0.46,2.76,3.65,15.76,4.28,18.73c-12.51-9.24-31.59-7.16-41.66,4.77c0-16.9-0.01-34.04,0.02-50.92
			C1170.04,175.02,1173.63,169.41,1179.07,167.01z M1175.47,156.04c0.11-3.66,3.58-6.85,7.31-6.64c5.48,0.27,6.91,4.67,7.36,9.39
			c-6.35-1.08-8.68-0.66-14.7,1.72C1175.43,159,1175.41,157.49,1175.47,156.04z M1195.63,276.5L1195.63,276.5L1195.63,276.5
			L1195.63,276.5z M1162.43,216.32v10.33h-17.32v-10.33H1162.43z M1149.98,187.52v21.17h-4.88v-21.17H1149.98z M1162.43,187.52
			v21.17h-4.88v-21.17H1162.43z M1116.16,275.51c-29.15,1.6-35.32-39.11-7.05-46.25c2.8-0.6,5.76-0.7,8.59-0.24
			C1144.69,233.74,1143.62,272.62,1116.16,275.51z M1122.06,165.68c8.26-0.23,15.56,6.95,15.45,15.3
			c0.03,16.9,0.02,34.01,0.02,50.92c-10.07-11.92-29.13-14.02-41.66-4.77c0.65-3.06,3.81-15.9,4.28-18.73l5.35-23.09l0,0
			c0.75-2.63,1.24-5.34,1.94-7.98C1109.09,170.67,1115.21,165.66,1122.06,165.68z M1132.09,160.02c0,0.16,0,0.33-0.01,0.49
			c-5.91-2.41-8.79-2.78-14.7-1.72c0.43-4.34,1.63-8.69,6.66-9.34c3.92-0.64,7.91,2.67,8.02,6.59
			C1132.12,157.34,1132.11,158.64,1132.09,160.02z M1116.25,276.5L1116.25,276.5L1116.25,276.5L1116.25,276.5z"/>
		<path class="st3" d="M374.64,270.69l-0.03-0.06c-0.22-0.37-0.44-0.76-0.66-1.17c-18.03-33.6-35.96-66.66-55.85-103.3
			c-0.66-1.22-0.65-1.93,0.04-3.15c2.34-4.12,4.61-8.39,6.8-12.52l0.29-0.55c1.57-2.96,1.18-5.84-1-7.34
			c-0.88-0.6-1.83-0.8-2.76-0.58c-1.27,0.31-2.39,1.35-3.33,3.11c-1.45,2.7-2.91,5.4-4.46,8.24l-1.19,2.19l-0.04-0.08l-0.04,0.07
			l-1.18-2.18c-1.55-2.85-3.01-5.55-4.46-8.25c-0.94-1.75-2.06-2.8-3.33-3.11c-0.93-0.23-1.89-0.03-2.76,0.58
			c-2.18,1.5-2.58,4.38-1,7.34l0.27,0.51c2.2,4.14,4.48,8.42,6.82,12.55c0.69,1.22,0.7,1.93,0.04,3.15
			c-19.89,36.64-37.83,69.71-55.85,103.3c-0.22,0.41-0.44,0.8-0.69,1.23c-1.07,2.09-2.59,6.04-0.79,8.99
			c1.35,2.21,4.24,3.34,8.59,3.34l54.39,0l54.39,0c4.35,0,7.23-1.13,8.59-3.34C377.23,276.73,375.7,272.78,374.64,270.69z
			 M358.96,273.72c-3.74-0.02-8.03-0.05-11.93-0.05c-2.68,0-5.17,0.01-7.18,0.05c-1.57,0.03-2.49-0.33-3.49-2.4
			c-3.95-8.25-8.02-16.59-11.96-24.65c-2.65-5.42-5.29-10.84-7.92-16.27c-1.08-2.23-2.44-3.26-4.04-3.08
			c-1.6-0.18-2.96,0.85-4.04,3.08c-2.63,5.43-5.28,10.85-7.92,16.27c-3.94,8.07-8.01,16.41-11.96,24.65
			c-0.99,2.08-1.92,2.44-3.49,2.4c-4.94-0.09-12.8-0.04-19.11,0c-3.16,0.02-5.88,0.03-7.53,0.03c9.03-16.69,18.03-33.39,27.04-50.12
			c8.97-16.65,17.96-33.33,27-50.04c9.04,16.71,18.03,33.39,27,50.04c9.02,16.75,18.03,33.47,27.08,50.11
			C364.89,273.76,362.15,273.74,358.96,273.72z"/>
	</g>
	<g>
		<path class="st3" d="M1212.11,248.46c-3.7-18.22-28.94-20.91-36.27-3.55c-5.81,13.29,6.18,28.58,20.5,26.02
			C1206.73,269.59,1214.39,258.69,1212.11,248.46z"/>
		<path class="st3" d="M1132.77,248.42c-3.82-18.37-29.07-20.7-36.27-3.5c-4.23,9.57,1.19,21.8,11.15,25.11
			C1121.23,275.25,1135.9,262.58,1132.77,248.42z"/>
	</g>
</g>
</svg>
